<svg xmlns="http://www.w3.org/2000/svg" width="500" height="186" viewBox="0 0 500 186" preserveAspectRatio="xMidYMid meet" role="img" aria-label="Barcode PRD001"><title>Barcode PRD001</title><rect width="500" height="186" fill="white"/><g shape-rendering="crispEdges"><rect x="48" y="6" width="8" height="150" fill="black" stroke="none"/><rect x="60" y="6" width="4" height="150" fill="black" stroke="none"/><rect x="72" y="6" width="4" height="150" fill="black" stroke="none"/><rect x="92" y="6" width="12" height="150" fill="black" stroke="none"/><rect x="108" y="6" width="12" height="150" fill="black" stroke="none"/><rect x="124" y="6" width="8" height="150" fill="black" stroke="none"/><rect x="136" y="6" width="8" height="150" fill="black" stroke="none"/><rect x="156" y="6" width="4" height="150" fill="black" stroke="none"/><rect x="164" y="6" width="12" height="150" fill="black" stroke="none"/><rect x="180" y="6" width="4" height="150" fill="black" stroke="none"/><rect x="188" y="6" width="8" height="150" fill="black" stroke="none"/><rect x="208" y="6" width="4" height="150" fill="black" stroke="none"/><rect x="224" y="6" width="4" height="150" fill="black" stroke="none"/><rect x="236" y="6" width="12" height="150" fill="black" stroke="none"/><rect x="252" y="6" width="8" height="150" fill="black" stroke="none"/><rect x="268" y="6" width="4" height="150" fill="black" stroke="none"/><rect x="280" y="6" width="12" height="150" fill="black" stroke="none"/><rect x="296" y="6" width="8" height="150" fill="black" stroke="none"/><rect x="312" y="6" width="4" height="150" fill="black" stroke="none"/><rect x="324" y="6" width="12" height="150" fill="black" stroke="none"/><rect x="344" y="6" width="8" height="150" fill="black" stroke="none"/><rect x="356" y="6" width="16" height="150" fill="black" stroke="none"/><rect x="376" y="6" width="8" height="150" fill="black" stroke="none"/><rect x="388" y="6" width="8" height="150" fill="black" stroke="none"/><rect x="400" y="6" width="8" height="150" fill="black" stroke="none"/><rect x="420" y="6" width="12" height="150" fill="black" stroke="none"/><rect x="436" y="6" width="4" height="150" fill="black" stroke="none"/><rect x="444" y="6" width="8" height="150" fill="black" stroke="none"/></g><text x="250" y="178" text-anchor="middle" font-size="18" font-family="Arial, Helvetica, sans-serif" font-weight="bold" fill="black" text-rendering="geometricPrecision">PRD001</text></svg>