<svg xmlns="http://www.w3.org/2000/svg" width="642" height="190" viewBox="0 0 642 190" preserveAspectRatio="xMidYMid meet" role="img" aria-label="Barcode PB-1"><title>Barcode PB-1</title><rect width="642" height="190" fill="white"/><g shape-rendering="crispEdges"><rect x="84" y="10" width="12" height="102" fill="black" stroke="none"/><rect x="102" y="10" width="6" height="102" fill="black" stroke="none"/><rect x="120" y="10" width="6" height="102" fill="black" stroke="none"/><rect x="150" y="10" width="18" height="102" fill="black" stroke="none"/><rect x="174" y="10" width="18" height="102" fill="black" stroke="none"/><rect x="198" y="10" width="12" height="102" fill="black" stroke="none"/><rect x="216" y="10" width="6" height="102" fill="black" stroke="none"/><rect x="240" y="10" width="6" height="102" fill="black" stroke="none"/><rect x="252" y="10" width="12" height="102" fill="black" stroke="none"/><rect x="282" y="10" width="6" height="102" fill="black" stroke="none"/><rect x="300" y="10" width="12" height="102" fill="black" stroke="none"/><rect x="318" y="10" width="18" height="102" fill="black" stroke="none"/><rect x="348" y="10" width="6" height="102" fill="black" stroke="none"/><rect x="366" y="10" width="18" height="102" fill="black" stroke="none"/><rect x="396" y="10" width="12" height="102" fill="black" stroke="none"/><rect x="414" y="10" width="12" height="102" fill="black" stroke="none"/><rect x="438" y="10" width="18" height="102" fill="black" stroke="none"/><rect x="468" y="10" width="6" height="102" fill="black" stroke="none"/><rect x="480" y="10" width="12" height="102" fill="black" stroke="none"/><rect x="510" y="10" width="18" height="102" fill="black" stroke="none"/><rect x="534" y="10" width="6" height="102" fill="black" stroke="none"/><rect x="546" y="10" width="12" height="102" fill="black" stroke="none"/></g><text x="321" y="142" text-anchor="middle" font-size="32" font-family="Arial, Helvetica, sans-serif" font-weight="bold" fill="black" text-rendering="geometricPrecision">PB-1</text></svg>