<svg xmlns="http://www.w3.org/2000/svg" width="300" height="145" viewBox="0 0 300 145"><rect width="300" height="145" fill="white"/><rect x="15" y="0" width="3" height="120" fill="black" stroke="none"/><rect x="24" y="0" width="3" height="120" fill="black" stroke="none"/><rect x="30" y="0" width="3" height="120" fill="black" stroke="none"/><rect x="36" y="0" width="3" height="120" fill="black" stroke="none"/><rect x="39" y="0" width="3" height="120" fill="black" stroke="none"/><rect x="57" y="0" width="3" height="120" fill="black" stroke="none"/><rect x="60" y="0" width="3" height="120" fill="black" stroke="none"/><rect x="66" y="0" width="3" height="120" fill="black" stroke="none"/><rect x="72" y="0" width="3" height="120" fill="black" stroke="none"/><rect x="78" y="0" width="3" height="120" fill="black" stroke="none"/><rect x="84" y="0" width="3" height="120" fill="black" stroke="none"/><rect x="90" y="0" width="3" height="120" fill="black" stroke="none"/><rect x="96" y="0" width="3" height="120" fill="black" stroke="none"/><rect x="105" y="0" width="3" height="120" fill="black" stroke="none"/><rect x="111" y="0" width="3" height="120" fill="black" stroke="none"/><rect x="114" y="0" width="3" height="120" fill="black" stroke="none"/><rect x="120" y="0" width="3" height="120" fill="black" stroke="none"/><rect x="123" y="0" width="3" height="120" fill="black" stroke="none"/><rect x="126" y="0" width="3" height="120" fill="black" stroke="none"/><text x="150" y="140" text-anchor="middle" font-size="14" font-family="Arial, Helvetica, sans-serif" font-weight="bold" fill="black">BY-001</text></svg>